<svg width="24" height="24" viewBox="0 0 24 24" fill="none" xmlns="http://www.w3.org/2000/svg">
<rect x="8.75" y="2.75" width="6.5" height="13.5" rx="3.25" stroke="#E62E6B" stroke-width="1.5"/>
<path d="M19.75 12C19.75 11.5858 19.4142 11.25 19 11.25C18.5858 11.25 18.25 11.5858 18.25 12H19.75ZM5.75 12C5.75 11.5858 5.41421 11.25 5 11.25C4.58579 11.25 4.25 11.5858 4.25 12H5.75ZM11.25 22.5C11.25 22.9142 11.5858 23.25 12 23.25C12.4142 23.25 12.75 22.9142 12.75 22.5H11.25ZM18.25 12V13H19.75V12H18.25ZM5.75 13V12H4.25V13H5.75ZM11.25 20V22.5H12.75V20H11.25ZM4.25 13C4.25 17.2802 7.71979 20.75 12 20.75V19.25C8.54822 19.25 5.75 16.4518 5.75 13H4.25ZM18.25 13C18.25 16.4518 15.4518 19.25 12 19.25V20.75C16.2802 20.75 19.75 17.2802 19.75 13H18.25Z" fill="#E62E6B"/>
</svg>
