<svg width="24" height="24" viewBox="0 0 24 24" fill="none" xmlns="http://www.w3.org/2000/svg">
<path d="M6.01249 21C4.97888 21.0001 3.98667 20.5992 3.25001 19.884L3.16876 19.8038C2.79864 19.4476 2.50455 19.0218 2.30383 18.5516C2.10311 18.0815 1.99981 17.5765 2.00002 17.0663C1.99871 16.514 2.10852 15.9669 2.32309 15.4568C2.53766 14.9467 2.85272 14.4836 3.25001 14.0945L12.9374 4.64266C13.9217 3.63167 15.2692 3.04254 16.6895 3.00217C18.1099 2.96181 19.4895 3.47344 20.5311 4.42686C21.0009 4.88916 21.3727 5.43907 21.6249 6.04456C21.8771 6.65005 22.0045 7.299 21.9999 7.95358C21.9943 8.68463 21.8424 9.4074 21.5528 10.0803C21.2632 10.7533 20.8417 11.3632 20.3124 11.8749L11.6062 20.3834C11.5521 20.4552 11.4828 20.5145 11.4031 20.5573C11.3234 20.6 11.2352 20.6251 11.1447 20.6309C11.0541 20.6366 10.9634 20.6228 10.8788 20.5905C10.7943 20.5582 10.7178 20.5081 10.6548 20.4436C10.5919 20.3792 10.5438 20.3021 10.5141 20.2175C10.4844 20.133 10.4737 20.0431 10.4827 19.954C10.4918 19.865 10.5204 19.779 10.5665 19.7019C10.6127 19.6249 10.6753 19.5587 10.75 19.5079L19.4312 10.9994C19.8434 10.6024 20.1722 10.1289 20.3985 9.60623C20.6248 9.08355 20.7442 8.52192 20.7499 7.95358C20.7544 7.46172 20.6595 6.9739 20.4706 6.51868C20.2817 6.06345 20.0027 5.64995 19.6499 5.30238C18.8423 4.5766 17.7782 4.19258 16.6864 4.23294C15.5947 4.2733 14.5627 4.73481 13.8124 5.51817L4.15625 14.97C3.8717 15.2426 3.64501 15.5683 3.48942 15.9283C3.33383 16.2882 3.25244 16.675 3.25001 17.0663C3.24868 17.4099 3.31649 17.7503 3.44953 18.0678C3.58256 18.3853 3.77817 18.6736 4.02501 18.916L4.10626 18.9961C4.66547 19.5041 5.40453 19.7752 6.16433 19.751C6.92413 19.7268 7.64392 19.4092 8.16873 18.8667L16.5124 10.7281C16.6702 10.5707 16.7946 10.3839 16.8783 10.1785C16.962 9.97309 17.0034 9.7533 16.9999 9.53197C17.0013 9.33972 16.9639 9.14913 16.8898 8.9713C16.8158 8.79347 16.7066 8.63195 16.5687 8.49615C16.253 8.21063 15.8363 8.059 15.4083 8.07399C14.9803 8.08899 14.5755 8.26941 14.2812 8.5763L8.53123 14.1993C8.41354 14.3146 8.25425 14.379 8.08839 14.3785C7.92254 14.3779 7.76372 14.3123 7.64686 14.1962C7.53 14.0801 7.46467 13.923 7.46526 13.7594C7.46585 13.5958 7.53229 13.4391 7.64998 13.3238L13.4249 7.68229C13.9543 7.14732 14.6756 6.83908 15.4333 6.82409C16.191 6.80909 16.9242 7.08854 17.4749 7.60214C17.7282 7.85647 17.9272 8.15826 18.0603 8.48971C18.1934 8.82115 18.2579 9.17554 18.2499 9.53197C18.2492 9.91579 18.171 10.2956 18.0196 10.6492C17.8683 11.0028 17.647 11.3231 17.3687 11.5913L9.04997 19.7545C8.24366 20.5487 7.15188 20.9963 6.01249 21V21Z" fill="#BA1122"/>
</svg>
