<?xml version="1.0" encoding="utf-8"?>
<!-- Generator: Adobe Illustrator 26.2.1, SVG Export Plug-In . SVG Version: 6.00 Build 0)  -->
<svg version="1.1" id="Слой_1" xmlns="http://www.w3.org/2000/svg" xmlns:xlink="http://www.w3.org/1999/xlink" x="0px" y="0px"
	 viewBox="0 0 84 84" style="enable-background:new 0 0 84 84;" xml:space="preserve">
<style type="text/css">
	.st0{fill:#FFFFFF;}
	.st1{fill-rule:evenodd;clip-rule:evenodd;fill:#00943F;}
</style>
<g>
	<path class="st0" d="M12,38C12,21.4,25.4,8,42,8l0,0c16.6,0,30,13.4,30,30l0,0c0,16.6-13.4,30-30,30l0,0C25.4,68,12,54.6,12,38
		L12,38z"/>
	<path class="st1" d="M28,37.5C28,30,34,24,41.5,24h1C50,24,56,30,56,37.5S50,51,42.5,51h-1c-1.8,0-3.4-0.3-5-0.9L29,53.5l2-7.6
		C29.1,43.6,28,40.7,28,37.5z M49,36H35v-3h14V36z M42.5,42H35v-3h7.5V42z"/>
</g>
</svg>
