<svg width="24" height="24" viewBox="0 0 24 24" fill="none" xmlns="http://www.w3.org/2000/svg">
<path d="M6.01249 21C4.97887 21.0001 3.98666 20.5993 3.25 19.884L3.16875 19.8039C2.79863 19.4476 2.50455 19.0218 2.30382 18.5517C2.1031 18.0815 1.9998 17.5765 2.00001 17.0664C1.9987 16.5141 2.10852 15.967 2.32308 15.4569C2.53765 14.9467 2.85271 14.4837 3.25 14.0945L12.9374 4.6427C13.9217 3.63171 15.2692 3.04258 16.6895 3.00222C18.1099 2.96186 19.4895 3.47349 20.5311 4.42691C21.0009 4.8892 21.3727 5.43912 21.6249 6.04461C21.8771 6.6501 22.0045 7.29904 21.9999 7.95362C21.9943 8.68468 21.8424 9.40745 21.5528 10.0804C21.2632 10.7533 20.8416 11.3632 20.3124 11.8749L11.6062 20.3834C11.5521 20.4553 11.4828 20.5146 11.4031 20.5573C11.3234 20.6001 11.2352 20.6252 11.1447 20.6309C11.0541 20.6366 10.9634 20.6229 10.8788 20.5905C10.7942 20.5582 10.7178 20.5081 10.6548 20.4437C10.5918 20.3793 10.5438 20.3021 10.5141 20.2176C10.4844 20.133 10.4737 20.0431 10.4827 19.9541C10.4918 19.865 10.5204 19.779 10.5665 19.702C10.6127 19.6249 10.6753 19.5587 10.75 19.5079L19.4311 10.9994C19.8434 10.6024 20.1722 10.129 20.3985 9.60628C20.6248 9.0836 20.7442 8.52196 20.7499 7.95362C20.7544 7.46176 20.6595 6.97395 20.4706 6.51872C20.2817 6.0635 20.0027 5.65 19.6499 5.30242C18.8423 4.57665 17.7781 4.19263 16.6864 4.23299C15.5947 4.27334 14.5627 4.73485 13.8124 5.51822L4.15625 14.9701C3.87169 15.2426 3.64501 15.5684 3.48941 15.9283C3.33382 16.2882 3.25243 16.6751 3.25 17.0664C3.24867 17.4099 3.31648 17.7503 3.44952 18.0678C3.58255 18.3854 3.77816 18.6737 4.025 18.916L4.10625 18.9962C4.66546 19.5042 5.40452 19.7753 6.16433 19.751C6.92413 19.7268 7.64391 19.4093 8.16872 18.8667L16.5124 10.7281C16.6702 10.5708 16.7946 10.3839 16.8783 10.1785C16.962 9.97314 17.0033 9.75335 16.9999 9.53201C17.0013 9.33977 16.9639 9.14918 16.8898 8.97134C16.8158 8.79351 16.7066 8.63199 16.5687 8.49619C16.253 8.21067 15.8363 8.05904 15.4083 8.07404C14.9803 8.08904 14.5755 8.26945 14.2812 8.57635L8.53122 14.1994C8.41353 14.3146 8.25424 14.3791 8.08839 14.3785C7.92253 14.3779 7.76371 14.3124 7.64685 14.1963C7.52999 14.0802 7.46467 13.923 7.46525 13.7594C7.46584 13.5958 7.53228 13.4391 7.64997 13.3238L13.4249 7.68234C13.9543 7.14736 14.6756 6.83913 15.4333 6.82413C16.191 6.80914 16.9242 7.08859 17.4749 7.60218C17.7282 7.85651 17.9272 8.1583 18.0603 8.48975C18.1934 8.8212 18.2579 9.17559 18.2499 9.53201C18.2492 9.91583 18.1709 10.2957 18.0196 10.6493C17.8683 11.0029 17.647 11.3231 17.3687 11.5913L9.04996 19.7546C8.24365 20.5487 7.15188 20.9964 6.01249 21Z" fill="#ABAEB2"/>
</svg>
